<svg width="369" height="276" viewBox="0 0 369 276" fill="none" xmlns="http://www.w3.org/2000/svg">
<path d="M368.589 236.068C366.883 235.368 365.056 234.613 363.131 233.809C354.73 231.65 345.069 234.169 340.586 236.068C343.086 233.179 341.986 233.034 317.586 255.562C293.186 278.091 267.419 276.616 257.586 273.062C254.753 269.729 252.386 259.062 265.589 243.062C278.791 227.062 305.754 224.396 317.586 225.062L292.586 215.062C286.419 212.562 272.386 207.962 265.589 209.562C257.091 211.562 242.589 222.062 220.586 243.062C198.583 264.062 137.586 251.062 139.086 243.062C140.586 235.062 163.085 203.562 197.086 196.562C224.286 190.962 248.753 194.229 257.586 196.562L214.586 172.568C205.586 169.4 183.986 164.964 169.586 172.568C155.186 180.173 138.586 186.4 132.086 188.562C91.2852 193.762 63.0856 180.066 54.0859 172.568C73.0859 139.074 134.586 148.062 147.086 152.068C157.086 155.273 169.253 153.403 174.086 152.068C144.086 135.668 103.252 113.237 86.5843 104.071C38.085 89.0685 -18.911 25.5625 6.08432 3.56851C31.0796 -18.4255 91.5843 67.5685 103.084 89.0685C112.284 106.268 146.918 125.568 163.085 133.068C139.373 120.068 128.085 29.5682 153.585 38.0682C179.085 46.5682 183.087 91.5682 183.087 113.568C183.087 135.568 181.587 145.068 193.587 152.068C203.187 157.668 230.255 168.068 242.589 172.568C211.089 146.568 208.089 60.0683 232.589 75.0683C257.089 90.0683 263.589 119.068 265.589 152.068C267.589 185.068 271.589 181.068 281.089 192.568C288.19 201.165 335.714 222.362 363.131 233.809C365.041 234.299 366.885 235.032 368.589 236.068Z" fill="#2D8FA2"></path>
</svg>